<?xml version="1.0" encoding="UTF-8"?>
<svg id="Layer_1" xmlns="http://www.w3.org/2000/svg" version="1.1" viewBox="0 0 1000 1000">
  <!-- Generator: Adobe Illustrator 30.3.0, SVG Export Plug-In . SVG Version: 2.1.3 Build 182)  -->
  <defs>
    <style>
      .st0 {
        fill: #fcb62e;
      }

      .st1 {
        fill: #5271ff;
      }
    </style>
  </defs>
  <path class="st1" d="M966.7,0H33.3C14.9,0,0,14.9,0,33.3v933.3c0,18.4,14.9,33.3,33.3,33.3h933.3c18.4,0,33.3-14.9,33.3-33.3V33.3c0-18.4-14.9-33.3-33.3-33.3ZM933.3,466.7h-400V66.7h400v400ZM466.7,66.7v400H66.7V66.7h400ZM66.7,533.3h400v400H66.7v-400ZM533.3,933.3v-400h400v400h-400Z"/>
  <path class="st0" d="M159.8,300h73.5v73.5c0,18.4,14.9,33.3,33.3,33.3s33.3-14.9,33.3-33.3v-73.5h73.5c18.4,0,33.3-14.9,33.3-33.3s-14.9-33.3-33.3-33.3h-73.5v-73.5c0-18.4-14.9-33.3-33.3-33.3s-33.3,14.9-33.3,33.3v73.5h-73.5c-18.4,0-33.3,14.9-33.3,33.3,0,18.4,14.9,33.3,33.3,33.3Z"/>
  <path class="st0" d="M313.8,733.3l52-52c13-13,13-34.1,0-47.1s-34.1-13-47.1,0l-52,52-52-52c-13-13-34.1-13-47.1,0s-13,34.1,0,47.1l52,52-52,52c-13,13-13,34.1,0,47.1s15,9.8,23.6,9.8,17.1-3.3,23.6-9.8l52-52,52,52c6.5,6.5,15,9.8,23.6,9.8s17.1-3.3,23.6-9.8c13-13,13-34.1,0-47.1l-52-52Z"/>
  <path class="st0" d="M626.5,300h213.7c18.4,0,33.3-14.9,33.3-33.3s-14.9-33.3-33.3-33.3h-213.7c-18.4,0-33.3,14.9-33.3,33.3s14.9,33.3,33.3,33.3Z"/>
  <path class="st0" d="M840.2,756.3h-213.7c-18.4,0-33.3,14.9-33.3,33.3s14.9,33.3,33.3,33.3h213.7c18.4,0,33.3-14.9,33.3-33.3s-14.9-33.3-33.3-33.3Z"/>
  <path class="st0" d="M840.2,643.8h-213.7c-18.4,0-33.3,14.9-33.3,33.3s14.9,33.3,33.3,33.3h213.7c18.4,0,33.3-14.9,33.3-33.3s-14.9-33.3-33.3-33.3Z"/>
</svg>