<?xml version="1.0" encoding="UTF-8"?>
<svg id="Layer_1" xmlns="http://www.w3.org/2000/svg" version="1.1" viewBox="0 0 1000 1000">
  <!-- Generator: Adobe Illustrator 30.3.0, SVG Export Plug-In . SVG Version: 2.1.3 Build 182)  -->
  <defs>
    <style>
      .st0 {
        stroke: #5271ff;
        stroke-miterlimit: 10;
        stroke-width: 22.7px;
      }

      .st0, .st1 {
        fill: #fff;
      }

      .st2 {
        fill: #fcb62e;
      }

      .st3 {
        fill: #5271ff;
      }
    </style>
  </defs>
  <g>
    <path class="st1" d="M30,11.3h940c10.3,0,18.7,8.4,18.7,18.7v940c0,10.3-8.4,18.7-18.7,18.7H30c-10.3,0-18.7-8.4-18.7-18.7V30c0-10.3,8.4-18.7,18.7-18.7Z"/>
    <path class="st3" d="M970,22.7c4,0,7.3,3.3,7.3,7.3v940c0,4-3.3,7.3-7.3,7.3H30c-4,0-7.3-3.3-7.3-7.3V30c0-4,3.3-7.3,7.3-7.3h940M970,0H30C13.4,0,0,13.4,0,30v940c0,16.6,13.4,30,30,30h940c16.6,0,30-13.4,30-30V30c0-16.6-13.4-30-30-30h0Z"/>
  </g>
  <line class="st0" x1="207.8" y1="731.6" x2="792.2" y2="147.3"/>
  <g>
    <path class="st2" d="M100.3,409.1c0-31.4,15.6-58.2,46.9-80.5,29.3-21,44-38.5,44.1-52.6v-66.1c0-12.9-5.6-19.4-16.7-19.4h-.3c-11.2,0-16.8,6.5-16.8,19.4v48.6h-57.2v-48.6c0-49.6,24.7-74.4,74-74.4s74.2,24.8,74.2,74.4v67.3c0,31.9-15.7,59.1-47.1,81.6-29.3,21-44,39.1-44,54.4v16.8h91v54.8H100.3v-75.7Z"/>
    <path class="st2" d="M439.7,416c0,49.5-24.7,74.2-74.2,74.2s-74-24.7-74-74.2v-206.1c0-49.6,24.7-74.4,74-74.4s74.2,24.8,74.2,74.4v206.1ZM382.5,209.9c0-12.9-5.6-19.4-16.8-19.4h-.3c-11.1,0-16.7,6.5-16.7,19.4v206.1c0,12.9,5.6,19.4,16.8,19.4s17-6.5,17-19.4v-206.1Z"/>
  </g>
  <g>
    <path class="st2" d="M575.3,657.8c0-31.4,15.6-58.2,46.9-80.5,29.3-21,44-38.5,44.1-52.6v-66.1c0-12.9-5.6-19.4-16.7-19.4h-.3c-11.2,0-16.8,6.5-16.8,19.4v48.6h-57.2v-48.6c0-49.6,24.7-74.4,74-74.4s74.2,24.8,74.2,74.4v67.3c0,31.9-15.7,59.1-47.1,81.6-29.3,21-44,39.1-44,54.4v16.8h91v54.8h-148.2v-75.7Z"/>
    <path class="st2" d="M914.7,664.7c0,49.5-24.7,74.2-74.2,74.2s-74-24.7-74-74.2v-206.1c0-49.6,24.7-74.4,74-74.4s74.2,24.8,74.2,74.4v206.1ZM857.5,458.6c0-12.9-5.6-19.4-16.8-19.4h-.3c-11.1,0-16.7,6.5-16.7,19.4v206.1c0,12.9,5.6,19.4,16.8,19.4s17-6.5,17-19.4v-206.1Z"/>
  </g>
  <g>
    <path class="st2" d="M110.4,781.8c-3.9,0-7,1.2-9.3,3.5-2.3,2.3-3.5,5.3-3.5,9.1s1.2,7.1,3.5,9.5c2.3,2.3,5.4,3.5,9.3,3.5,8.4,0,12.6-4.3,12.6-12.9s-1.1-6.9-3.4-9.2c-2.3-2.3-5.3-3.4-9.2-3.4Z"/>
    <path class="st2" d="M98.8,902.1c0,8.1-2,14.4-5.9,19-3.9,4.6-9.4,6.9-16.5,6.9s-13-1.9-19.7-5.6v21.2c7.7,4.1,15.6,6.2,23.8,6.2,12.5,0,22.5-4.3,30.1-12.9,8.2-9.3,12.4-21.4,12.4-36.3v-73.8l-24.1,12.9v62.4Z"/>
    <path class="st2" d="M219.7,809.8c8.4,0,12.6-4.3,12.6-12.9s-1.1-6.9-3.4-9.2c-2.3-2.3-5.3-3.4-9.2-3.4s-7,1.2-9.3,3.5c-2.3,2.3-3.5,5.3-3.5,9.1s1.2,7.1,3.5,9.5c2.3,2.3,5.4,3.5,9.3,3.5Z"/>
    <path class="st2" d="M249.2,809.8c8.4,0,12.6-4.3,12.6-12.9s-1.1-6.9-3.4-9.2c-2.3-2.3-5.3-3.4-9.2-3.4s-6.8,1.2-9.2,3.5c-2.4,2.3-3.6,5.3-3.6,9.1s1.2,7,3.5,9.4c2.3,2.4,5.4,3.6,9.3,3.6Z"/>
    <path class="st2" d="M500.1,837.6c-7.1-9.4-17-14.1-29.7-14.1s-18,2.8-24.3,8.5c-7.2,6.6-10.8,15.6-10.8,27.2v16c0,5-1,8.6-3.1,10.7-2.1,2.1-5.5,3.2-10.4,3.2h-23c-4.9,0-8.4-1.1-10.5-3.2-2.1-2.1-3.2-5.7-3.2-10.7v-5.6c0-13.1-3-23.8-8.9-31.9-7.1-9.5-17.1-14.3-30.1-14.3s-20.6,3.7-27.4,11c-7.9,8.4-11.8,20.1-11.8,35.1v5.6c0,5-1,8.6-3.1,10.7-2.1,2.1-5.5,3.2-10.4,3.2h-23.2c-4.9,0-8.4-1.1-10.4-3.2-2.1-2.1-3.1-5.7-3.1-10.7v-48.5l-24.3,12.7v35.7c0,5-1,8.6-3.1,10.7-2.1,2.1-5.5,3.2-10.4,3.2h-23.2c-4.9,0-8.4-1.1-10.4-3.2-2.1-2.1-3.1-5.7-3.1-10.7v-87.3l-24.3,12.7v75.7c0,10.2,2.8,18.5,8.3,24.9,6.4,7.5,15.5,11.2,27.2,11.2h27.8c9.4,0,17.2-2.5,23.4-7.5,6.2,5,14,7.5,23.4,7.5h27.8c9.1,0,16.8-2.4,23-7.1,6.7,7.3,15.8,11,27.4,11s20.5-3.7,27.4-11c5.9,4.8,13.5,7.1,22.8,7.1h27.8c8.8,0,16.2-2.3,22.4-6.8,6.6,4.5,15,6.8,25.3,6.8s19.2-3.6,26.1-10.8c7.6-8.2,11.4-19.5,11.4-33.8s-3-22.5-9.1-30.3ZM346,893c-9.9,0-14.9-8-14.9-23.9s5-23,14.9-23,14.7,7.7,14.7,23-4.9,23.9-14.7,23.9ZM470.9,889.2c-7.6,0-11.4-3.6-11.4-10.8v-19.5c0-8.5,3.6-12.7,10.8-12.7s14.9,7,14.9,21-4.8,22-14.3,22Z"/>
  </g>
</svg>