<?xml version="1.0" encoding="UTF-8"?>
<svg id="Layer_1" xmlns="http://www.w3.org/2000/svg" version="1.1" viewBox="0 0 1070.7 500">
  <!-- Generator: Adobe Illustrator 30.1.0, SVG Export Plug-In . SVG Version: 2.1.1 Build 136)  -->
  <defs>
    <style>
      .st0 {
        fill: #fff;
      }

      .st1 {
        fill: #fcb62e;
      }
    </style>
  </defs>
  <path class="st0" d="M828.7,371.3c-1.5-4.2-2.8-8.8-3.7-14-.9-5.1-1.8-12-2.6-20.5-.8-8.6-1.3-19.7-1.7-33.4-.4-13.7-.6-31.4-.6-53.1s.2-39.4.6-53.1c.4-13.7.9-24.8,1.7-33.4.8-8.6,1.6-15.4,2.6-20.5.9-5.1,2.2-9.8,3.7-14,8-25.1,21.7-44.6,41.3-58.5,19.5-13.9,44.7-20.8,75.5-20.8s55.9,6.9,75.4,20.8c19.5,13.9,33.3,33.4,41.3,58.5,1.5,4.2,2.8,8.8,3.7,14,.9,5.1,1.8,12,2.6,20.5.8,8.6,1.3,19.7,1.7,33.4.4,13.7.6,31.4.6,53.1s-.2,39.4-.6,53.1-1,24.8-1.7,33.4c-.8,8.6-1.6,15.4-2.6,20.5-.9,5.1-2.2,9.8-3.7,14-8,25.1-21.7,44.6-41.3,58.5-19.5,13.9-44.7,20.8-75.4,20.8s-55.9-6.9-75.5-20.8c-19.5-13.9-33.3-33.4-41.3-58.5h0ZM905.8,357.1c5.7,17.5,19,26.3,39.6,26.3s33.9-8.7,39.6-26.3c.8-2.7,1.4-5.7,2-9.1s1.1-8.8,1.4-16.3c.4-7.4.7-17.5.9-30.3.2-12.7.3-29.8.3-51.1s0-38.3-.3-51.1c-.2-12.7-.5-22.8-.9-30.2s-.9-12.8-1.4-16.3c-.6-3.4-1.2-6.5-2-9.1-5.8-17.5-19-26.3-39.6-26.3s-33.9,8.8-39.6,26.3c-.8,2.7-1.4,5.7-2,9.1-.6,3.4-1.1,8.8-1.4,16.3-.4,7.4-.7,17.5-.9,30.2-.2,12.8-.3,29.8-.3,51.1s0,38.3.3,51.1c.2,12.8.5,22.8.9,30.3.4,7.4.9,12.8,1.4,16.3.6,3.4,1.2,6.5,2,9.1Z"/>
  <path class="st1" d="M269.9,186.7l-164,63.1,164,63.1v85.7L0,291.6v-83.7l269.9-106.9v85.7h0Z"/>
  <path class="st1" d="M432.4,0h86.2l-166.5,500h-85.7L432.4,0Z"/>
  <path class="st1" d="M515,186.7v-85.7l269.9,106.9v83.7l-269.9,106.9v-85.7l164.1-63.1-164.1-63.1h0Z"/>
  <circle class="st0" cx="687.6" cy="421.1" r="29.5"/>
  <circle class="st0" cx="164.5" cy="72.5" r="29.5"/>
  <circle class="st0" cx="29.5" cy="72.5" r="29.5"/>
</svg>